<?xml version="1.0" encoding="utf-8"?>
<!-- Generator: Adobe Illustrator 18.0.0, SVG Export Plug-In . SVG Version: 6.00 Build 0)  -->
<!DOCTYPE svg PUBLIC "-//W3C//DTD SVG 1.1//EN" "http://www.w3.org/Graphics/SVG/1.1/DTD/svg11.dtd">
<svg version="1.1" id="Layer_1" xmlns="http://www.w3.org/2000/svg" xmlns:xlink="http://www.w3.org/1999/xlink" x="0px" y="0px"
	 viewBox="0 0 63.8 66" enable-background="new 0 0 63.8 66" xml:space="preserve">
<g id="Document" transform="scale(1 -1)">
	<g id="Spread" transform="translate(0 -792)">
		<g id="Layer_1_1_">
			<path marker-start="none" marker-end="none" fill="#FFFFFF" d="M3.9,751.5c4,7.6,7.8,15.5,1.5,25l6.8,7.5
				c5.7-1.7,12.9-0.6,18.8,3l0.8,0.5l0.1,0.1l0.1-0.1l0.8-0.5c5.9-3.5,13.1-4.7,18.8-3l6.8-7.5c0,0,0-0.1-0.1-0.1L3.9,751.5
				L3.9,751.5C3.9,751.4,3.9,751.4,3.9,751.5z M18.4,763.1c2.4,1.9,5.1,4.9,8.2,9.1c2,2.6,3.2,4.2,3.8,4.9l0.3,0.4l0.1,0.1
				c0.1,0.1,0.1,0.1,0.2,0.1c0,0-0.1-0.1-0.2-0.3c-0.7-0.8-1.3-1.9-1.9-3.2c-0.6-1.3-1.4-3.3-2.4-6c-1.1-3.1-2.2-5.1-3.2-6.2
				c-0.2-0.2-0.4-0.4-0.4-0.4c0,0,0,0,0.1,0c0.1,0,0.4,0.2,1,0.6c1.7,1.3,4.1,3.7,7.1,7.4c2.5,3.1,4.3,5.1,5.4,6.2c1,1,2.3,2,3.8,3
				c2.7,1.7,5,2.6,6.9,2.6c0.4,0,0.7,0,1,0h0.2c0.3,0,0.4,0.1,0.4,0.3c0,0.2-0.3,0.3-0.9,0.3c-1.7,0-3.7-0.7-6.1-2
				c-1.7-0.9-3.2-2-4.6-3.2s-2.9-2.9-4.6-4.9c-3.3-4-5.4-6.4-6.1-7.2c-1-1.1-1.6-1.6-1.8-1.6c0,0,0,0,0,0c0,0,0,0.1,0,0.1
				c1,1.1,1.9,2.3,2.6,3.6c0.7,1.3,1.4,3.2,2.2,5.6c0.7,2.2,1.3,3.8,1.6,4.6c0.3,0.7,0.7,1.4,1.3,2.1c0,0.1,0.1,0.1,0.1,0.1
				c0,0.1,0,0.1-0.1,0.1c-0.2,0-0.8-0.5-1.7-1.5c-0.9-1-1.9-2.1-2.8-3.4c-3.3-4.4-6-7.6-7.9-9.6c-1.4-1.4-2.2-2.1-2.5-2.1
				c0,0,0,0,0,0c0,0,0.1,0.1,0.3,0.3c1.9,1.6,3.4,3.5,4.7,5.8c1.3,2.2,2,4.2,2,5.7c0,1.5-0.4,2.7-1.3,3.7c-0.9,1-1.9,1.5-3.2,1.5
				c-2.2,0-4.4-1.1-6.8-3.4c-1.1-1-1.9-2.1-2.5-3.4c-0.6-1.2-0.9-2.4-0.9-3.6c0-1.2,0.3-2.2,1-3c0.7-0.8,1.5-1.2,2.6-1.2
				c1.8,0,3.5,1.1,5,3.2c1.4,1.9,2.1,3.7,2.1,5.2c0,0.7-0.2,1.2-0.5,1.6c-0.3,0.4-0.8,0.6-1.4,0.6c-0.5,0-0.9-0.2-1.3-0.5
				c-0.4-0.3-0.6-0.7-0.6-1.1c0-0.6,0.3-0.8,0.8-0.8c0.3,0,0.5,0.1,0.7,0.3c0.2,0.2,0.3,0.4,0.3,0.7c0,0.4-0.2,0.6-0.6,0.6
				c-0.1,0-0.2,0-0.4,0c-0.1,0-0.1,0-0.1,0c0,0-0.1,0-0.1,0.1c0,0.1,0.1,0.3,0.4,0.4c0.3,0.1,0.6,0.2,0.9,0.2c0.5,0,0.9-0.2,1.2-0.6
				c0.3-0.4,0.5-0.9,0.5-1.5c0-1.3-0.5-2.8-1.6-4.4c-1.7-2.5-3.4-3.8-5.3-3.8c-0.9,0-1.6,0.3-2.1,0.9c-0.5,0.6-0.8,1.4-0.8,2.4
				c0,2.4,1.1,4.8,3.2,7.2c2.1,2.4,4.2,3.6,6.4,3.6c1,0,1.8-0.4,2.4-1.1c0.6-0.7,0.9-1.7,0.9-2.9c0-1.8-0.7-4.1-2.2-7.1
				c-1.5-3-3-5.2-4.6-6.6c-0.1-0.1-0.2-0.1-0.2-0.2c0,0,0-0.1,0.1-0.1C16.4,761.6,17.2,762.1,18.4,763.1z"/>
			
				<path marker-start="none" marker-end="none" fill="#191919" stroke="#B38A35" stroke-width="4.072" stroke-miterlimit="79.8403" d="
				M31.9,729l-2.1,0.9c-12.3,5.8-21.7,14-26.4,21.4c4,7.8,7.9,15.8,1.5,25.5l7,7.6c5.8-1.8,13.2-0.6,19.2,3l0.8,0.5l0.1,0.1l0.1-0.1
				l0.8-0.5c6-3.6,13.4-4.8,19.2-3l7-7.6c-6.4-9.7-2.5-17.7,1.5-25.5c-4.7-7.4-14.1-15.6-26.4-21.4l-2.1-0.9l-0.1-0.1L31.9,729z"/>
			<path marker-start="none" marker-end="none" fill="#FFFFFF" d="M29.5,737.4c-1.2,1.2-1.9,2.8-1.9,4.6c0,1.8,0.6,3.6,1.9,5.4
				c-4.5,0.8-6.7,2.6-6.7,5.3c0,1.6,0.8,3,2.5,4.1c1.7,1.1,3.7,1.6,6.2,1.6c3.5,0,7-1.2,10.5-3.5c0.6,0.1,1.2,0.2,1.9,0.2
				c2.1,0,3.1-0.5,3.1-1.5c0-0.7-0.5-1.4-1.4-2.1c0.9-1.3,1.3-2.4,1.3-3.5c0-0.3-0.1-0.4-0.2-0.4c-0.1,0-0.2,0.2-0.2,0.5
				c0,1-0.4,2.1-1.1,3.2c-1.5-1.1-3.5-2.1-6.1-2.9c-2.6-0.8-4.9-1.2-6.9-1.2c-0.3,0-0.5,0-0.7,0c-1.7-2.3-2.5-4.5-2.5-6.7
				c0-1.5,0.5-2.6,1.4-3.5c0.9-0.9,2.1-1.3,3.7-1.3c3,0,5.6,1.4,7.9,4.2c1.4,1.7,2.1,3.3,2.1,4.9c0,0.8-0.2,1.5-0.7,1.9
				c-0.5,0.5-1.1,0.7-1.9,0.7c-1.3,0-2.7-0.7-4.2-2c-1.5-1.4-2.2-2.6-2.2-3.8c0-0.1,0-0.2,0.1-0.2c0.1,0,0.1,0,0.1,0.1
				c0.3,0.2,0.5,0.4,0.8,0.4c0.5,0,0.8-0.3,0.8-0.9c0-0.8-0.4-1.2-1.1-1.2c-0.7,0-1,0.4-1,1.2c0,1.5,0.8,3,2.3,4.4
				c1.5,1.5,3,2.2,4.6,2.2c2,0,3-1.1,3-3.3c0-2.3-1.1-4.3-3.2-6.2c-2.2-1.9-4.6-2.8-7.2-2.8C32.3,735.5,30.7,736.2,29.5,737.4z
				 M39,748.6c2.6,0.8,4.7,1.8,6.2,2.9c-0.8,1.2-1.9,2.2-3.2,3.1c-1.9-0.5-3.8-1.4-5.7-2.7c-1.8-1.3-3.4-2.8-4.5-4.4
				C33.9,747.5,36.3,747.9,39,748.6z M41.6,754.9c-3.2,1.8-6.5,2.7-10.1,2.7c-2.2,0-4.1-0.5-5.8-1.6c-1.6-1-2.5-2.3-2.5-3.6
				c0-2.5,2.1-4.1,6.3-4.8C32.2,751.3,36.2,753.7,41.6,754.9z M46.7,753.6c0,0.9-0.8,1.3-2.5,1.3c-0.5,0-1.1-0.1-1.9-0.2
				c1.2-0.9,2.3-1.8,3.1-3C46.3,752.4,46.7,753.1,46.7,753.6z"/>
			<path marker-start="none" marker-end="none" fill="#FFFFFF" d="M3.9,751.5c4,7.6,7.8,15.5,1.5,25l6.8,7.5
				c5.7-1.7,12.9-0.6,18.8,3l0.8,0.5l0.1,0.1l0.1-0.1l0.8-0.5c5.9-3.5,13.1-4.7,18.8-3l6.8-7.5c0,0,0-0.1-0.1-0.1L3.9,751.5
				L3.9,751.5C3.9,751.4,3.9,751.4,3.9,751.5z"/>
			<path marker-start="none" marker-end="none" fill="#010101" d="M16.2,761.7c0,0,0.1,0.1,0.2,0.2c1.6,1.5,3.2,3.7,4.6,6.6
				c1.5,3,2.2,5.3,2.2,7.1c0,1.2-0.3,2.2-0.9,2.9c-0.6,0.7-1.4,1.1-2.4,1.1c-2.1,0-4.3-1.2-6.4-3.6c-2.1-2.4-3.2-4.8-3.2-7.2
				c0-1,0.3-1.8,0.8-2.4c0.5-0.6,1.3-0.9,2.1-0.9c1.9,0,3.6,1.3,5.3,3.8c1.1,1.7,1.6,3.1,1.6,4.4c0,0.6-0.2,1.1-0.5,1.5
				c-0.3,0.4-0.7,0.6-1.2,0.6c-0.3,0-0.6-0.1-0.9-0.2c-0.3-0.1-0.4-0.3-0.4-0.4c0,0,0-0.1,0.1-0.1c0,0,0.1,0,0.1,0
				c0.2,0,0.3,0,0.4,0c0.4,0,0.6-0.2,0.6-0.6c0-0.3-0.1-0.5-0.3-0.7c-0.2-0.2-0.4-0.3-0.7-0.3c-0.5,0-0.8,0.3-0.8,0.8
				c0,0.4,0.2,0.8,0.6,1.1c0.4,0.3,0.8,0.5,1.3,0.5c0.6,0,1-0.2,1.4-0.6c0.3-0.4,0.5-1,0.5-1.6c0-1.5-0.7-3.3-2.1-5.2
				c-1.6-2.1-3.3-3.2-5-3.2c-1,0-1.9,0.4-2.6,1.2c-0.7,0.8-1,1.8-1,3c0,1.1,0.3,2.3,0.9,3.6c0.6,1.2,1.4,2.4,2.5,3.4
				c2.4,2.3,4.6,3.4,6.8,3.4c1.3,0,2.3-0.5,3.2-1.5c0.9-1,1.3-2.2,1.3-3.7c0-1.6-0.7-3.5-2-5.7c-1.3-2.2-2.9-4.2-4.7-5.8
				c-0.2-0.2-0.3-0.3-0.3-0.3c0,0,0,0,0,0c0.3,0,1.1,0.7,2.5,2.1c2,2,4.6,5.2,7.9,9.6c1,1.3,1.9,2.4,2.8,3.4c0.9,1,1.5,1.5,1.7,1.5
				c0,0,0.1,0,0.1-0.1c0,0,0-0.1-0.1-0.1c-0.5-0.7-0.9-1.4-1.3-2.1c-0.4-0.8-0.9-2.3-1.6-4.6c-0.8-2.5-1.5-4.3-2.2-5.6
				c-0.7-1.3-1.6-2.5-2.6-3.6c0,0,0-0.1,0-0.1c0,0,0,0,0,0c0.1,0,0.7,0.5,1.8,1.6c0.7,0.7,2.8,3.1,6.1,7.2c1.7,2.1,3.3,3.7,4.6,4.9
				s2.9,2.3,4.6,3.2c2.3,1.3,4.3,2,6.1,2c0.6,0,0.9-0.1,0.9-0.3c0-0.2-0.1-0.3-0.4-0.3h-0.2c-0.3,0-0.6,0-1,0
				c-1.9,0-4.2-0.9-6.9-2.6c-1.5-1-2.8-2-3.8-3c-1.1-1-2.9-3.1-5.4-6.2c-3-3.7-5.4-6.2-7.1-7.4c-0.6-0.4-0.9-0.6-1-0.6
				c0,0-0.1,0-0.1,0c0,0,0.1,0.1,0.4,0.4c1,1.1,2.1,3.1,3.2,6.2c1,2.7,1.8,4.7,2.4,6c0.6,1.3,1.2,2.3,1.9,3.2
				c0.2,0.2,0.2,0.3,0.2,0.3c-0.1,0-0.1,0-0.2-0.1l-0.1-0.1l-0.3-0.4c-0.5-0.7-1.8-2.3-3.8-4.9c-3.1-4.2-5.9-7.3-8.2-9.1
				C17.2,762.1,16.4,761.6,16.2,761.7C16.2,761.7,16.2,761.7,16.2,761.7z"/>
		</g>
	</g>
</g>
</svg>
